PathFileType	4	(X/Y/Z)	C:/Users/beibeiliu/ov580/test_trc/User3\sequence.26_training_dense_right.trc
DataRate	CameraRate	NumFrames	NumMarkers	Units	OrigDataRate	OrigDataStartFrame	OrigNumFrames
120	120	10	19	mm	120	26	102
Frame#	Time	ThumbCMC			ThumbMCP			ThumbIP			ThumbTip			IndexMCP			IndexPIP			IndexTip			MiddleMCP			MiddlePIP			MiddleTip			RingMCP			RingPIP			RingTip			PinkyMCP			PinkyPIP			PinkyTip			BackHand1			BackHand2			BackHand3	
		X0	Y0	Z0	X1	Y1	Z1	X2	Y2	Z2	X3	Y3	Z3	X4	Y4	Z4	X5	Y5	Z5	X6	Y6	Z6	X7	Y7	Z7	X8	Y8	Z8	X9	Y9	Z9	X10	Y10	Z10	X11	Y11	Z11	X12	Y12	Z12	X13	Y13	Z13	X14	Y14	Z14	X15	Y15	Z15	X16	Y16	Z16	X17	Y17	Z17	X18	Y18	Z18	
25	0.208333	96.0585	-3.69281	7.76278	80.7579	-7.67122	-19.4865	70.8529	-9.02209	-43.6923	70.3841	-16.2775	-69.9892	126.096	16.6306	-55.9577	115.423	13.6244	-85.6505	97.1444	-2.36881	-102.97	144.42	1.69576	-66.8456	133.779	-2.99429	-93.6365	103.521	-22.6201	-113.429	153.078	-17.404	-61.5536	142.41	-22.2902	-90.5394	123.412	-33.6311	-103.486	157.617	-40.0126	-52.4171	148.716	-46.3377	-74.1011	127.404	-57.1554	-88.8715	160.557	-22.2097	-3.00969	158.204	-28.9329	24.0963	137.28	-0.126567	13.1198	
26	0.216667	99.0186	-5.85958	8.81757	83.3215	-7.61305	-17.9126	69.576	-6.47566	-44.3642	67.7518	-13.0967	-70.4871	125.756	17.5787	-54.8708	118.075	14.3238	-84.3851	94.5246	2.21785	-102.294	143.578	3.78918	-62.5184	131.003	-3.44254	-95.1015	108.437	-21.2994	-111.496	151.148	-12.9488	-62.7135	140.25	-19.0182	-89.6922	121.253	-36.7714	-105.677	157.297	-39.803	-53.8098	144.449	-41.6522	-75.0846	126.137	-52.8177	-87.9762	158.206	-19.4249	-5.83846	158.065	-30.371	22.4861	138.103	0.920326	14.8473	
27	0.225	96.5504	-4.39971	12.7915	80.0359	-6.65296	-16.2479	70.2674	-5.68186	-48.8619	65.6799	-12.537	-69.4209	127.716	16.1405	-57.2133	116.727	15.8982	-84.0072	95.1173	2.63398	-103.419	143.102	3.50511	-63.7578	132.342	-2.67548	-94.3411	103.413	-19.7699	-112.286	153.485	-16.5602	-58.0987	141.304	-18.2301	-87.5142	122.394	-37.6264	-104.689	157.212	-38.7906	-51.3371	149.532	-46.5292	-74.1244	124.812	-51.744	-89.5863	159.715	-19.6146	-6.55923	156.753	-27.0419	26.8734	137.987	1.72152	10.9667	
28	0.233333	97.7062	-5.65588	9.81805	81.4023	-6.67397	-20.097	71.1378	-7.76563	-44.8151	65.7118	-12.8425	-69.3373	125.558	18.4243	-59.0066	115.097	16.3573	-84.2517	93.5915	-0.114218	-104.026	142.562	3.58859	-65.0121	130.402	-0.14015	-92.4399	104.955	-20.1051	-112.441	151.831	-15.3309	-61.4479	143.575	-20.8393	-87.9374	123.281	-35.5259	-103.531	156.204	-38.5373	-51.4343	147.232	-43.9971	-75.0276	130.081	-55.3542	-89.3526	158.716	-18.7299	-3.87529	157.421	-29.2683	25.9345	135.784	3.2019	10.4996	
29	0.241667	98.8765	-7.53989	11.9753	81.3527	-9.21985	-16.7922	68.1361	-6.88727	-46.6406	68.7662	-13.7482	-71.4664	127.334	14.112	-60.5379	116.607	13.7489	-84.6765	98.1984	-0.0278008	-102.689	143.951	1.6288	-66.6196	130.596	-4.44974	-94.4646	102.328	-20.7444	-112.522	152.718	-17.9685	-59.2612	142.079	-21.7269	-88.8411	120.694	-35.8601	-104.742	156.237	-39.3273	-49.8169	147.154	-46.0603	-75.7596	131.125	-57.1089	-89.5613	159.465	-20.0788	-5.66322	159.005	-30.3776	25.3003	134.269	1.17346	13.977	
30	0.25	97.6899	-6.11804	9.44436	81.0461	-7.89391	-18.7715	69.9438	-8.74525	-44.5414	67.7468	-14.4893	-67.3428	124.669	16.5651	-57.5391	116.833	10.1359	-86.1966	99.5212	-1.12547	-103.2	142.943	0.835839	-65.5023	130.098	-4.4401	-95.4757	105.541	-23.2768	-111.914	152.762	-17.3557	-61.495	141.716	-20.5165	-88.3718	120.794	-40.5629	-105.135	154.863	-38.119	-50.764	145.081	-42.8412	-74.4074	129.712	-54.1947	-88.8516	159.167	-21.9487	-5.03198	156.526	-29.4202	22.5246	135.65	0.395152	13.5848	
31	0.258333	98.0694	-7.23268	10.9001	81.1235	-7.92323	-21.0434	70.3894	-7.99281	-45.4351	66.4051	-13.7451	-70.8748	128.237	13.2962	-55.5979	116.046	11.4059	-86.7883	99.5153	-3.96125	-104.303	144.101	0.962524	-66.6251	132.026	-5.20853	-94.497	103.249	-22.7498	-113.077	151.342	-16.4491	-61.9475	142.244	-23.0903	-88.6804	121.819	-35.1375	-103.378	156.57	-40.3769	-50.7013	146.354	-43.5204	-73.1478	126.743	-52.6389	-88.6041	157.796	-20.5933	-5.55911	156.306	-27.4219	25.7069	137.569	-2.30154	12.3615	
32	0.266667	95.5445	-6.49133	13.8788	79.87	-7.27892	-20.6691	68.7695	-5.90039	-47.6526	67.9029	-13.6271	-71.5079	127.857	14.3425	-54.4002	113.395	12.9763	-87.1281	98.6445	-0.599656	-101.892	142.915	1.27612	-62.1576	128.724	-1.95966	-93.9486	106.956	-23.6482	-112.164	152.013	-16.7977	-59.4049	142.53	-20.6508	-87.2375	121.818	-39.0938	-104.015	156.316	-38.6419	-48.5457	148.987	-46.4554	-73.5746	124.773	-54.5205	-88.0835	160.601	-22.1819	-3.54001	157.923	-31.8478	23.0687	138.08	-1.43818	10.0959	
33	0.275	96.9649	-7.78163	12.3011	79.2227	-7.87699	-15.6751	68.6612	-7.44297	-44.1856	66.6899	-11.4705	-71.5614	125.542	16.7161	-58.2641	116.153	13.1055	-85.1517	101.124	-3.12137	-103.026	144.83	-1.63524	-62.011	131.144	-2.63136	-93.5731	107.232	-20.1213	-111.364	152.78	-17.8252	-62.7063	144.026	-22.8714	-87.9607	125.412	-39.4988	-102.644	156.936	-38.929	-51.3104	148.894	-45.5048	-73.9902	126.767	-57.1202	-90.9926	160.653	-20.3698	-3.14839	156.693	-28.6864	22.1217	133.935	-0.136389	13.957	
34	0.283333	98.9005	-7.37344	9.88239	79.993	-5.90608	-19.1343	72.6456	-8.10016	-43.0811	66.6334	-10.9251	-71.2053	128.923	12.2456	-57.204	114.209	12.8996	-88.2845	100.295	-1.1282	-103.535	141.644	3.62353	-65.7141	131.418	-1.94253	-92.8913	105.582	-23.2895	-111.837	151.605	-16.1084	-60.5828	144.644	-22.4093	-86.1443	119.904	-37.4479	-104.641	156.451	-38.977	-51.1754	147.982	-46.3776	-74.3262	127.614	-54.0306	-88.8298	159.543	-23.672	-3.01072	155.565	-30.1521	24.7877	135.808	0.0531625	10.6422	
